<?xml version="1.0" encoding="utf-8"?>
<!-- Generator: Adobe Illustrator 24.0.0, SVG Export Plug-In . SVG Version: 6.00 Build 0)  -->
<svg version="1.1" id="Layer_1" xmlns="http://www.w3.org/2000/svg" xmlns:xlink="http://www.w3.org/1999/xlink" x="0px" y="0px"
	 viewBox="0 0 77.7 76.7" style="enable-background:new 0 0 77.7 76.7;" xml:space="preserve">
<style type="text/css">
	.st0{fill:#FFFFFF;}
	.st1{fill:#F4922B;}
	.st2{fill:#EE8222;}
	.st3{fill:#FDF1DE;}
</style>
<title>logoROCKET</title>
<g>
	<path class="st0" d="M6,64.8c-0.1-0.2-0.1-0.3-0.2-0.5c-0.2-0.3-0.2-0.3,0-0.5c0.4-0.4,0.7-1,0.7-1.6c0.1-0.7,0.1-1.4,0-2.1
		c0-0.3,0-0.7-0.1-1c-0.1-0.4-0.2-0.9-0.4-1.2c-0.4-0.6-1.2-1-2-1c-0.9-0.1-1.8-0.1-2.7-0.1c-0.4,0-0.9,0-1.3-0.1v0.1h0.1
		c0.3,0.2,0.4,0.6,0.4,1c0,0.6-0.1,1.2-0.1,1.8c0,1.4,0,2.8,0,4.2c0,0.2,0,0.4,0,0.7v0.1c0,1.6-0.1,3.1-0.1,4.6c0,0.1,0,0.1,0,0.2
		s0.1,0.2,0.2,0.2s0.1,0,0.2,0c0.6,0,1.1,0,1.6,0h0.2c0.1,0,0.2-0.1,0.2-0.2s0-0.1,0-0.1c0-1.4,0-2.7,0-4.1V65
		c0-0.2,0.1-0.2,0.2-0.2h0.3c0.3,0,0.7-0.1,1-0.1c0.2,0,0.2,0.1,0.3,0.2V65c0.1,0.6,0.2,1.2,0.3,1.7c0.2,0.8,0.3,1.7,0.4,2.6
		c0.1,0.2,0.1,0.2,0.3,0.2h0.9l0.4,0.1C7,69.6,7,69.5,7,69.4v-0.2C6.6,67.8,6.3,66.3,6,64.8z M6.5,59.7L6.5,59.7L6.5,59.7L6.5,59.7z
		 M4.7,61.9c0,0.5-0.4,0.9-0.8,1c-0.2,0-0.4,0.1-0.6,0H2.7c-0.2,0-0.2,0-0.2-0.2v-1.8v-1.7c0-0.1,0-0.1,0-0.2s0.1-0.2,0.2-0.2l0,0
		c0.4,0,1,0,1.4,0.1c0.3,0.1,0.6,0.3,0.6,0.7c0,0.3,0,0.7,0.1,1C4.7,60.9,4.7,61.5,4.7,61.9z"/>
	<path class="st0" d="M77.7,58.6c-0.1-0.4-0.3-0.9-0.7-1.2c-0.3-0.2-0.7-0.4-1.1-0.5c-0.8-0.2-1.6-0.2-2.5,0
		c-0.4,0.1-0.8,0.3-1.1,0.6c-0.3,0.3-0.4,0.7-0.6,1.1c-0.1,0.4-0.2,0.8-0.2,1.2v4.4c0,0.1,0,0.1,0,0.2s0,0.1,0,0.1
		c0,0.8,0,1.6,0,2.4c0,0.4,0.1,0.7,0.1,1.1c0.2,0.9,0.8,1.6,1.7,1.7c0.3,0.1,0.5,0.1,0.8,0.1c0.6,0.1,1.2,0,1.7-0.2
		c1-0.2,1.6-1.1,1.6-2h0.1L77.7,58.6C77.7,58.7,77.7,58.6,77.7,58.6z M75.9,64.7c0,0.1,0,0.2,0,0.2c0,0.6,0,1.1,0,1.7l0,0
		c0,0.2,0,0.4-0.1,0.6c-0.1,0.3-0.3,0.5-0.6,0.6c-0.2,0.1-0.4,0.1-0.7,0c-0.5-0.1-0.8-0.5-0.8-1c0-0.3,0-0.7,0-1.1
		c0-0.1,0-0.2,0-0.2v-5.7c0-0.2,0-0.3,0.1-0.5c0.1-0.3,0.2-0.4,0.5-0.5s0.7-0.1,1.1,0c0.3,0.1,0.5,0.3,0.5,0.6
		C76,59.5,76,59.8,76,60L75.9,64.7L75.9,64.7z"/>
	<path class="st0" d="M11.7,57c-0.4-0.2-1-0.3-1.5-0.3c-0.6,0-1.2,0.1-1.7,0.3c-0.6,0.2-1.1,0.7-1.2,1.3c-0.1,0.3-0.2,0.7-0.2,1
		C7.1,61,7,62.8,7,64.6c0,0.1,0,0.1,0,0.1v1.6c0,0.6,0.1,1.1,0.2,1.6c0.1,0.9,0.8,1.6,1.7,1.7c0.4,0.1,0.7,0.1,1.1,0.1
		c0.4,0.1,0.9,0,1.3-0.1c0.6-0.1,1.2-0.5,1.4-1.1c0.1-0.1,0.1-0.1,0.1-0.2c0.2-0.5,0.3-1.1,0.3-1.7v-6.3c0-0.4,0-0.7-0.1-1.1
		C13.2,58.2,12.6,57.3,11.7,57z M11.2,66.7c0,0.2,0,0.4-0.1,0.6c-0.1,0.3-0.3,0.4-0.6,0.5c-0.2,0.1-0.5,0.1-0.7,0
		c-0.4-0.1-0.8-0.5-0.8-1c0-0.1,0-0.1,0-0.1c0-0.1,0-0.1,0-0.2v-6.7c0-0.2,0-0.3,0-0.5c0-0.3,0.3-0.6,0.7-0.6c0.1,0,0.2,0,0.3,0
		c0.2,0,0.5,0.1,0.7,0.1c0.2,0.1,0.4,0.2,0.4,0.4s0.1,0.4,0.1,0.7v5c0,0.1,0,0.2,0,0.2C11.2,65.6,11.2,66.1,11.2,66.7z"/>
	<path class="st0" d="M29.9,59.1c0-0.2,0.1-0.3,0.3-0.3h3c0.1,0,0.2,0,0.3,0c-0.1-0.3-0.1-0.6-0.2-0.8c0-0.1,0-0.2-0.1-0.2
		c-0.1-0.2-0.1-0.5-0.2-0.7c0-0.1-0.1-0.1-0.2-0.1h-5c-0.1,0-0.1,0-0.1,0.1c-0.1,0.2-0.2,0.5-0.2,0.7c0,0.3,0,0.6,0,0.8
		c-0.1,2.3-0.1,4.6-0.1,6.9c0,0.1,0,0.1,0,0.2c0,0.2,0,0.3,0,0.5l0.1,3.2c0,0.3,0.1,0.3,0.3,0.3c1.7,0,3.4,0,5.1,0
		c0.1,0,0.2,0,0.2-0.1c0.1-0.1,0.1-0.2,0.1-0.3s0-0.2,0-0.4c0.1-0.4,0.1-0.7,0.1-1.1c0-0.2,0-0.2-0.2-0.2h-3.2
		c-0.1,0-0.2-0.1-0.2-0.2s0-0.2,0-0.2c0-0.4,0-0.8,0-1.2c0-0.1,0-0.2,0-0.3c0-0.1,0-0.1,0-0.1c0-0.4,0-0.8,0-1.2
		c0-0.2,0-0.3,0.3-0.3h0.1h1.8c0.2,0,0.3-0.1,0.3-0.2c0-0.5,0.1-1.1,0.2-1.6c0-0.1,0-0.1-0.1-0.2l0,0h-0.2c-0.7,0-1.3,0-2,0h-0.2
		c-0.2,0-0.2-0.1-0.2-0.2v-0.1C29.9,61.1,29.9,60,29.9,59.1z"/>
	<path class="st0" d="M67.8,57.7c-0.3-0.4-0.7-0.6-1.1-0.7c-0.3-0.1-0.6-0.1-0.8-0.1c-1.3,0-2.6,0-3.9,0c-0.1,0-0.1,0-0.2,0.1
		c0.1,0.2,0.2,0.4,0.3,0.6c0.1,0.2,0.2,0.3,0.2,0.6c0,2,0,3.9,0,5.8c0,0.1,0,0.2,0,0.2v0.1c0,1.7,0,3.4,0,5.2v0.1
		c0,0.2,0.1,0.2,0.2,0.2h2.4c0.5,0,1,0,1.6-0.1c0.7-0.1,1.3-0.4,1.6-1.1c0.2-0.6,0.3-1.1,0.3-1.7c0-0.1,0-0.2,0-0.3
		c0-2.1,0-4.2,0-6.3c0-0.3,0-0.6-0.1-0.9C68.3,58.6,68.2,58.1,67.8,57.7z M66.5,63.5c0,0.1,0,0.2,0,0.2s0,0.1,0,0.2
		c0,0.8,0,1.6,0,2.4c0,0.3,0,0.5-0.1,0.8c0,0.2-0.1,0.4-0.3,0.4c-0.2,0.1-0.4,0.1-0.7,0.1c-0.3,0-0.6,0-0.9,0
		c-0.2,0-0.3-0.1-0.3-0.3s0-0.5,0-0.8c0-0.1,0-0.1,0-0.2s0-0.2,0-0.2V59c0-0.3,0-0.3,0.3-0.3s0.7,0.1,1.1,0.1c0.1,0,0.2,0,0.4,0
		c0.1,0.1,0.1,0.1,0.2,0.1c0.1,0.1,0.2,0.2,0.2,0.4c0,0.2,0.1,0.4,0.1,0.6C66.5,61.2,66.5,62.3,66.5,63.5z M67.6,66.8L67.6,66.8
		L67.6,66.8L67.6,66.8c0-0.1,0-0.1,0.1-0.2C67.6,66.7,67.6,66.8,67.6,66.8z"/>
	<path class="st0" d="M39.6,56.9h-5.9c-0.1,0-0.1,0-0.2,0c0,0,0,0,0,0.1c0.1,0.6,0.3,1.1,0.4,1.6c0.1,0.2,0.1,0.2,0.3,0.2
		c0.4,0,0.8,0,1.3,0c0.1,0,0.1,0,0.2,0s0.2,0.1,0.2,0.2s0,0.2,0,0.3c0,2.2,0,4.4,0,6.6c0,0.1,0,0.2,0,0.2v0.1v3.1
		c0,0.2,0.1,0.2,0.2,0.2l1.3-0.1c0.2,0,0.4,0,0.6,0s0.3-0.1,0.2-0.3c0-0.3-0.1-0.7-0.1-1.1L38,64.4L37.8,59c0-0.3,0-0.3,0.3-0.3h1.5
		c0.2,0,0.2-0.1,0.2-0.2V57C39.7,57,39.7,56.9,39.6,56.9C39.7,56.9,39.6,56.9,39.6,56.9z"/>
	<path class="st0" d="M48.2,64.3c-0.6-0.9-1.3-1.7-2-2.6c-0.4-0.6-0.9-1.2-1.4-1.8c-0.1-0.1-0.2-0.2-0.2-0.3c0-0.3,0-0.5,0.1-0.8
		s0.2-0.4,0.5-0.4c0.4,0,0.8,0,1.3,0.1c0.2,0,0.3,0.2,0.4,0.4c0,0.1,0,0.2,0,0.3c0,0.2,0,0.4,0,0.6S47,60,47.2,60l0.7-0.2l0.7-0.1
		c0.1,0,0.2,0,0.2-0.2c0.1-0.1,0-0.1,0-0.1c0-0.2,0-0.3,0.1-0.4c0.1-0.2,0-0.2-0.2-0.2c-0.2-0.1-0.5-0.1-0.7-0.1
		c-0.6-0.2-1.2-0.5-1.6-0.8s-0.8-0.7-1.1-1.1c-0.1-0.1-0.1-0.1-0.2-0.1c-0.4,0.1-0.8,0.2-1.2,0.3c-0.5,0.2-0.8,0.6-1,1.1
		c-0.3,1-0.2,2.1,0.2,3.1c0.1,0.2,0.2,0.5,0.3,0.7l2,2.5c0.3,0.3,0.6,0.7,0.8,1.1l0.1,0.1l0.5,0.6c0.1,0.2,0.2,0.3,0.2,0.5
		c0,0.6-0.4,1.1-1,1.2c-0.2,0-0.4,0-0.7-0.1c-0.3-0.1-0.6-0.3-0.7-0.7c-0.1-0.2-0.1-0.3-0.1-0.5s-0.1-0.3-0.1-0.5
		c-0.1-0.2-0.1-0.2-0.3-0.2L42.8,66c-0.2,0-0.3,0.1-0.3,0.3s0.1,0.5,0.1,0.7c0,0.4,0.1,0.7,0.2,1.1c0.2,0.7,0.7,1.2,1.4,1.3
		c0.2,0.1,0.5,0.1,0.7,0.1c0.5,0.1,1.1,0.1,1.6,0c1.1-0.1,1.9-0.8,2.2-1.8v-0.1c0.2-0.5,0.3-1.1,0.2-1.7
		C48.8,65.4,48.6,64.8,48.2,64.3z"/>
	<path class="st0" d="M71.2,64.4c0-2.4,0-4.6,0-7c0-0.1,0-0.2,0-0.3c0-0.1,0-0.1,0-0.2v-0.1c0,0-0.1,0-0.2,0
		c-0.6,0.1-1.2,0.2-1.8,0.3c-0.3,0.1-0.3,0.1-0.3,0.4c0.1,1.5,0.1,3,0.1,4.4l0.1,2c0,0.1,0,0.2,0,0.3c0,1.2,0.1,2.4,0.1,3.6
		c0,0.5,0,1,0,1.5c0,0.2,0.1,0.2,0.2,0.2c0.6,0,1.2,0,1.8,0c0.2,0,0.2-0.1,0.2-0.2c0-0.3,0-0.7,0-1.1c0-0.1,0-0.2-0.1-0.2
		C71.2,66.8,71.2,65.6,71.2,64.4z"/>
	<path class="st0" d="M26.7,66.9c0-0.1,0-0.1-0.1-0.2c-0.3-1.1-0.7-2.2-1-3.4c-0.1-0.4-0.4-0.8-0.8-1.1c-0.2-0.1-0.3-0.2-0.4-0.3
		s-0.1-0.1-0.1-0.2c0,0,0-0.1,0.1-0.1c0.8-1.6,1.6-3.2,2.4-4.8c0.1-0.1,0.1-0.1,0.1-0.2h-0.1h-1.7c-0.2,0-0.3,0.1-0.4,0.2
		c-0.1,0.2-0.2,0.4-0.3,0.7c-0.6,1.1-1.1,2.2-1.7,3.2c-0.1,0.1-0.1,0.2-0.2,0.2c0-0.1,0-0.2,0-0.2c0-1.3,0-2.6,0-3.9
		c0-0.3-0.1-0.3-0.3-0.3h-1.6c-0.3,0-0.3,0.1-0.3,0.3s0,0.7,0,1.1l0.2,5.2c0,0.7,0.1,1.3,0.1,2c0,0.1,0,0.1,0,0.2
		c0,0.9,0.1,1.8,0.1,2.7c0,0.3,0,0.7,0,1c0,0.2,0.1,0.2,0.2,0.2h1.5c0.2,0,0.2-0.1,0.2-0.2s0-0.1,0-0.2c0-0.6,0-1.1,0-1.6
		c0-0.3,0-0.7,0-1c0-0.2,0-0.5,0-0.7s0.1-0.4,0.2-0.6l0.7-1.5c0-0.1,0-0.1,0.1-0.1c0.1,0.2,0.1,0.5,0.2,0.7c0.2,0.5,0.3,1,0.4,1.5
		c0.1,0.4,0.3,0.8,0.4,1.2c0,0.1,0.1,0.1,0.1,0.2c0.3,0.7,0.6,1.4,0.8,2.1c0.1,0.1,0.2,0.2,0.3,0.2h0.4h1c0.2,0,0.2-0.1,0.2-0.2
		C27.1,68.4,26.9,67.8,26.7,66.9z"/>
	<path class="st0" d="M19.8,64.9l-0.6,0.2l-1.1,0.3c-0.1,0.1-0.3,0.1-0.3,0.2s0,0.2,0,0.2c0,0.4-0.1,0.9-0.1,1.3
		c0,0.3-0.2,0.6-0.6,0.6c-0.3,0.1-0.6,0.1-1,0c-0.3-0.1-0.5-0.3-0.6-0.6c0-0.2-0.1-0.3-0.1-0.5c0-0.1,0-0.2,0-0.2v-6.7
		c0-0.2,0.1-0.5,0.1-0.7s0.2-0.4,0.4-0.4c0.3-0.1,0.6-0.1,1-0.1c0.3,0,0.6,0.2,0.7,0.6c0.1,0.1,0.1,0.3,0.1,0.4
		c0,0.2,0.1,0.2,0.3,0.2l0.9-0.1l0.8-0.1c0.2,0,0.2-0.1,0.2-0.2s0-0.3-0.1-0.4c-0.1-0.8-0.6-1.6-1.4-1.9c-0.2-0.1-0.4-0.2-0.6-0.2
		c-0.6-0.1-1.1-0.1-1.6,0c-0.3,0-0.6,0.1-0.9,0.1c-0.7,0.2-1.3,0.7-1.4,1.4c-0.1,0.4-0.2,0.8-0.2,1.2c0,1.8,0,3.5,0,5.3
		c0,0.3,0,0.5,0,0.8c0,0.4,0,0.8,0,1.2s0.1,0.9,0.2,1.3c0.2,0.8,0.8,1.3,1.6,1.5s1.7,0.2,2.5,0c1-0.2,1.7-1.1,1.8-2.1
		c0-0.1,0.1-0.1,0.1-0.1C20,67.2,20,67,20,66.7c0-0.5,0-1-0.1-1.5C19.9,64.9,19.9,64.9,19.8,64.9z"/>
	<path class="st0" d="M54.2,57.2c-0.5,0.6-1.1,1-1.8,1.2c-0.4,0.2-0.7,0.3-1.1,0.3c-0.2,0.1-0.2,0.1-0.2,0.2c0,2,0,3.9,0,5.8
		c0,0.1,0,0.1,0,0.2v0.1c0,1.5,0,2.9,0,4.4c0,0.2,0.1,0.2,0.2,0.2c0.7,0,1.4,0,2.1,0c0.2,0,0.2-0.1,0.2-0.2c0-0.3-0.1-0.6-0.1-0.9
		c0-0.1,0-0.1,0-0.1c0-0.1,0-0.2,0-0.3c0-0.2,0-0.5,0-0.7c-0.1-0.8-0.1-1.6-0.1-2.5c-0.1-0.8-0.1-1.7-0.2-2.5
		c-0.1-0.6-0.1-1.2-0.1-1.8c0-0.4-0.1-1-0.1-1.4c0-0.2,0-0.2,0.2-0.2h1.6c0.2,0,0.3-0.1,0.3-0.3c0-0.5,0-1,0-1.5c0-0.1,0-0.1,0-0.2
		c-0.2,0-0.3-0.1-0.4-0.1C54.4,56.9,54.2,57,54.2,57.2z"/>
	<path class="st0" d="M57.9,67.6L57.9,67.6L57.9,67.6z"/>
	<path class="st0" d="M61.2,57C61.2,56.9,61.1,56.9,61.2,57c-0.2-0.1-0.3-0.1-0.4-0.1H60c-0.3,0-0.4,0-0.4,0.3c0,2.4,0,4.6,0,7
		c0,0.1,0,0.1,0,0.2s0,0.2,0,0.2c0,0.6,0,1.3,0,1.9c0,0.1,0,0.2-0.1,0.3c-0.1,0.4-0.4,0.8-0.9,0.9c-0.2,0-0.3,0-0.4,0l-0.3-0.1
		c0,0.1,0,0.1-0.1,0.1c0-0.1,0.1-0.1,0.1-0.1l0,0l0,0c-0.3-0.2-0.6-0.6-0.5-1c0-0.1,0-0.2,0-0.3c0-0.1,0-0.2,0-0.2
		c0-0.9,0-1.7,0-2.6v-6.2c0-0.1,0-0.2-0.1-0.3c-0.1-0.1-0.2-0.1-0.2-0.1h-1.5c-0.1,0-0.1,0-0.1,0c-0.1,0.2-0.1,0.2-0.1,0.3v7.2
		c0,0.1,0,0.1,0,0.2c0,0.3,0,0.7,0,1c0,0.6,0,1.1,0.1,1.6c0.1,0.4,0.2,0.8,0.4,1.2c0.1,0.1,0.1,0.2,0.2,0.2c0.3,0.5,0.8,0.8,1.3,0.9
		c0.7,0.1,1.5,0.1,2.2,0.1c0.3,0,0.7-0.2,1-0.3c0.5-0.4,0.8-0.9,1-1.5l0.1-0.1c0.1-0.4,0.2-0.8,0.2-1.2c0-2.9,0-5.7,0-8.5
		c0-0.1,0-0.1,0-0.2s0-0.1,0-0.2C61.5,57.5,61.4,57.2,61.2,57z"/>
</g>
<g>
	<path class="st1" d="M3.7,73.9c-0.1-0.1-0.2-0.1-0.3-0.1H1.3c-0.1,0-0.2-0.1-0.2-0.2c0,0,0,0,0-0.1s0.1-0.3,0.2-0.3l0,0h3
		c0.1,0,0.1-0.1,0.1-0.1l0,0v-0.7c0-0.1-0.1-0.1-0.1-0.1s0,0-0.1,0H1c-0.3,0-0.6,0.2-0.7,0.6c0,0.1-0.1,0.1-0.1,0.1v1
		c0.1,0.1,0.1,0.1,0.1,0.2c0.1,0.4,0.4,0.6,0.8,0.6h2c0.1,0,0.1,0,0.2,0c0.2,0,0.2,0.2,0.2,0.3l0,0c0,0.1-0.1,0.2-0.2,0.2l0,0H0.2v1
		h3.6c0.1-0.1,0.2-0.1,0.3-0.2c0.2-0.2,0.3-0.4,0.3-0.7c0-0.3,0-0.6,0-0.8C4.3,74.3,4,74.2,3.7,73.9z"/>
	<path class="st1" d="M52.3,72.4L52.3,72.4h-3.4c-0.3,0-0.6,0.2-0.7,0.6c-0.1,0.2-0.1,0.3-0.1,0.4v1.3c0,0.3,0,0.5,0,0.8
		c0,0.4,0.2,0.7,0.6,0.8c0.1,0,0.1,0.1,0.2,0.1h3.5c0-0.1,0-0.2,0-0.3v-2c0-0.2,0-0.2-0.2-0.2h-2c-0.1,0-0.2,0-0.2,0.2s0,0.4,0,0.7
		c0,0.1,0.1,0.1,0.1,0.1s0,0,0.1,0h1.1c0.2,0,0.2,0,0.2,0.2v0.2c0,0.2,0,0.2-0.2,0.2h-1.7c-0.3,0-0.4-0.1-0.4-0.4c0-0.4,0-0.8,0-1.2
		c0-0.1,0-0.1,0-0.2c0-0.2,0.2-0.3,0.3-0.3h2.9c0.1,0,0.1-0.1,0.1-0.1l0,0v-0.7C52.4,72.6,52.4,72.4,52.3,72.4z"/>
	<path class="st1" d="M54.4,73.4h3c0.1,0,0.1-0.1,0.1-0.1s0,0,0-0.1v-0.7c0-0.1,0-0.2-0.2-0.2h-3.1c-0.1,0-0.2,0-0.3,0
		c-0.3,0-0.5,0.2-0.6,0.5c-0.1,0.2-0.1,0.4-0.1,0.6c0,0.6,0,1.3,0,1.9c0,0.1,0,0.2,0,0.3c0.1,0.3,0.2,0.5,0.4,0.6
		c0.1,0,0.2,0.1,0.2,0.1h3.6v-0.7c0.1-0.3,0.1-0.3-0.2-0.3c-0.9,0-1.8,0-2.7,0c-0.3,0-0.4-0.2-0.4-0.5c0-0.1,0.1-0.1,0.1-0.1h2.2
		c0.1,0,0.1-0.1,0.1-0.1c0-0.2,0-0.4,0-0.7c0-0.1-0.1-0.1-0.1-0.1l0,0h-2.2c-0.1,0-0.1,0-0.1-0.1C54,73.7,54.2,73.4,54.4,73.4z"/>
	<path class="st1" d="M24.5,75.6c-0.9,0-1.8,0-2.7,0c-0.3,0-0.4-0.2-0.4-0.4c0-0.1,0.1-0.1,0.1-0.1h2.1c0.1,0,0.1-0.1,0.1-0.1
		s0,0,0-0.1v-0.7c0-0.1-0.1-0.1-0.1-0.1l0,0h-2.1c-0.1,0-0.1-0.1-0.1-0.1c-0.1-0.2,0.1-0.4,0.3-0.4c0.1,0,0.1,0,0.1,0
		c0.6,0,1.2,0,1.7,0h1.1c0.2,0,0.2,0,0.2-0.2v-0.5c0-0.2,0-0.2-0.2-0.2h-3.2c-0.4-0.1-0.8,0.3-0.8,0.7c0,0.1-0.1,0.2-0.1,0.3v1.1
		c0,0.3,0,0.6,0,0.9c0,0.4,0.2,0.7,0.6,0.8c0.1,0,0.1,0.1,0.1,0.1h3.6c0-0.2,0-0.4,0-0.7C24.9,75.6,24.8,75.6,24.5,75.6z"/>
	<path class="st1" d="M72.5,72.4h-3.1c-0.1,0-0.2,0-0.3,0c-0.3,0-0.6,0.2-0.6,0.5c-0.1,0.2-0.1,0.3-0.1,0.5V75c0,0.2,0,0.3,0,0.5
		c0,0.4,0.2,0.7,0.6,0.8c0.1,0,0.1,0.1,0.1,0.1h3.6c0-0.2,0-0.4,0-0.7c0-0.3,0-0.3-0.3-0.3c-0.9,0-1.8,0-2.7,0
		c-0.3,0-0.4-0.2-0.4-0.5c0-0.1,0.1-0.1,0.1-0.1h2.1c0.1,0,0.1-0.1,0.1-0.1v-0.7c0-0.1-0.1-0.1-0.1-0.1h-2.1c-0.1,0-0.1,0-0.1-0.1
		c-0.1-0.2,0-0.4,0.2-0.4h0.1c0.1,0,0.1,0,0.2,0h2.8c0.1,0,0.2-0.1,0.2-0.2c0-0.2,0-0.4,0-0.7C72.7,72.4,72.6,72.4,72.5,72.4z"/>
	<path class="st1" d="M29.7,72.4h-3.3c-0.3,0-0.7,0.2-0.7,0.6c-0.1,0.1-0.1,0.3-0.1,0.4v2.1c0,0.1,0,0.1,0,0.2
		c0,0.3,0.2,0.6,0.5,0.7c0.1,0,0.1,0.1,0.2,0.1h3.6v-0.8c0-0.1,0-0.2-0.2-0.2h-2.1c-0.3,0-0.5,0-0.8,0c-0.2,0-0.3-0.1-0.3-0.3l0,0
		c0-0.1,0-0.1,0-0.2s0.1-0.1,0.1-0.1l0,0h2.2c0.1,0,0.1-0.1,0.1-0.1V74c0-0.1-0.1-0.1-0.1-0.1h-2.1c-0.1,0-0.1-0.1-0.1-0.1
		c0-0.3,0.2-0.4,0.4-0.4c0.3,0,0.6,0,1,0h1.7c0.3,0,0.3,0,0.3-0.3v-0.5C29.9,72.4,29.9,72.4,29.7,72.4z"/>
	<path class="st1" d="M34.2,72.4c-0.1,0-0.1,0-0.2,0h-3.1c-0.3,0-0.3,0-0.3,0.3v3.8h3.6c0.1-0.1,0.1-0.1,0.1-0.1
		c0.3-0.1,0.6-0.4,0.6-0.8c0-0.2,0-0.3,0-0.6c0-0.5,0-1.1,0-1.6C35,72.9,34.7,72.4,34.2,72.4z M34.1,75.2c0,0.3-0.1,0.3-0.4,0.3h-2
		c-0.2,0-0.2,0-0.2-0.2v-1.7c0-0.2,0-0.2,0.2-0.2h2c0.2,0,0.3,0.1,0.3,0.3C34.1,74.3,34.1,74.7,34.1,75.2z"/>
	<path class="st1" d="M77.4,74.4c0.2-0.1,0.3-0.2,0.3-0.4c0-0.3,0-0.6,0-0.8c0-0.3-0.2-0.6-0.4-0.7c-0.2-0.1-0.3-0.1-0.5-0.1h-3.1
		c-0.1,0-0.1,0.1-0.1,0.1l0,0c0,0.1,0,0.1,0,0.1c0,1.3,0,2.5,0,3.8h0.8c0.1-0.1,0.1-0.2,0.1-0.3c0-0.3,0-0.6,0-0.8s0.1-0.3,0.3-0.3
		c0.5,0,1,0,1.5,0c0.3,0,0.4,0.1,0.4,0.4c0,0.2,0,0.5,0,0.7c0,0.1,0,0.2,0.1,0.3h0.8c0-0.4,0-1,0-1.4C77.7,74.8,77.6,74.6,77.4,74.4
		z M76.5,73.9h-1.9c-0.2,0-0.2,0-0.2-0.2c0-0.4,0-0.3,0.3-0.3h1.7c0.2,0,0.3,0.1,0.3,0.3C76.8,73.8,76.7,73.9,76.5,73.9z"/>
	<path class="st1" d="M46.5,72.4C46.4,72.4,46.4,72.4,46.5,72.4H44c-0.4,0-0.8,0.3-0.9,0.7C43,73.3,43,73.4,43,73.5
		c0,0.6,0,1.2,0,1.9c-0.1,0.4,0.2,0.8,0.6,0.9c0.1,0,0.1,0.1,0.1,0.1h2.7l0.2-0.1c0.3-0.1,0.6-0.4,0.6-0.8c0-0.8,0-1.5,0-2.2
		C47.3,72.8,46.9,72.4,46.5,72.4z M46.3,75.2c0,0.2-0.1,0.3-0.3,0.3h-1.6c-0.3,0-0.4-0.1-0.4-0.4c0-0.4,0-0.8,0-1.3
		c0-0.3,0.1-0.4,0.4-0.4h1.5c0.1,0,0.1,0,0.2,0c0.2,0,0.3,0.2,0.3,0.3C46.3,74.3,46.3,74.7,46.3,75.2L46.3,75.2z"/>
	<path class="st1" d="M19.4,75.6h-2.7c-0.3,0-0.4-0.1-0.4-0.4v-0.6c0-0.2,0-0.5,0-0.7s0.1-0.3,0.3-0.3h0.1h3c0.1,0,0.1-0.1,0.1-0.1
		l0,0v-0.7c0-0.1-0.1-0.1-0.1-0.1l0,0h-3.4c-0.3,0-0.6,0.2-0.7,0.4c-0.1,0.2-0.1,0.3-0.1,0.5v2.1c0,0.1,0,0.1,0,0.2
		c0,0.3,0.2,0.6,0.5,0.7c0.1,0,0.1,0.1,0.2,0.1h3.6c0-0.2-0.1-0.4,0-0.7C19.7,75.4,19.7,75.6,19.4,75.6z"/>
	<path class="st1" d="M14.5,72.4h-3.3c-0.3,0-0.6,0.2-0.7,0.5c-0.1,0.2-0.1,0.3-0.1,0.5v1.7c0,0.2,0,0.3,0,0.5
		c0,0.3,0.2,0.6,0.5,0.7c0.1,0,0.1,0.1,0.2,0.1h3.6c0-0.3,0-0.6,0-0.8c0-0.2,0-0.2-0.2-0.2c-0.1,0-0.1,0-0.2,0h-2.8
		c-0.1,0-0.2-0.1-0.3-0.2c0-0.1-0.1-0.1-0.1-0.2v-1.2c0-0.1,0-0.1,0-0.2c0-0.2,0.2-0.2,0.3-0.2h3c0.1,0,0.1-0.1,0.1-0.1v-0.7
		C14.6,72.6,14.5,72.4,14.5,72.4z"/>
	<path class="st1" d="M67.6,72.7c0-0.2,0-0.2-0.2-0.2H67c-0.2,0-0.2,0-0.2,0.2c0,0.3,0,0.6,0,0.9c0,0.1,0,0.2,0,0.3s0,0.2-0.2,0.2
		h-2.1c-0.3,0-0.3,0.1-0.3-0.3c0-0.3,0-0.7,0-1c0-0.2,0-0.2-0.2-0.2h-0.4c-0.3,0-0.3,0-0.3,0.3v3.5c0,0.1,0,0.2,0,0.3h0.8
		c0.1-0.1,0.1-0.2,0.1-0.3c0-0.3,0-0.6,0-0.8c0-0.3,0.1-0.3,0.3-0.3c0.6,0,1.1,0,1.7,0c0.3,0,0.3,0.1,0.3,0.3c0,0.3,0,0.6,0,0.8
		c0,0.1,0,0.2,0.1,0.3h0.8c0-0.1,0-0.2,0-0.2l-0.1-3.4C67.6,72.8,67.6,72.8,67.6,72.7z"/>
	<path class="st1" d="M9.4,72.6c0-0.2,0-0.2-0.2-0.2H8.8c-0.3,0-0.3,0-0.3,0.3v2.4c0,0.3-0.1,0.4-0.4,0.4H6.4
		c-0.1,0-0.2-0.1-0.3-0.2c0-0.1,0-0.2,0-0.2v-2.5c0-0.1-0.1-0.1-0.1-0.1H5.4c-0.2,0-0.2,0-0.2,0.2c0,0.1,0,0.1,0,0.2v2.5
		c0,0.1,0,0.2,0,0.3c0,0.3,0.2,0.7,0.5,0.8c0.1,0,0.1,0.1,0.1,0.1h2.9c0.1-0.1,0.1-0.1,0.2-0.1c0.2-0.1,0.4-0.3,0.4-0.6
		c0-0.1,0.1-0.2,0.1-0.3l-0.1-2.7L9.4,72.6L9.4,72.6z"/>
	<path class="st1" d="M62.2,72.4h-3.8c-0.1,0-0.2,0.1-0.2,0.2c0,0.2,0,0.4,0,0.6s0,0.2,0.2,0.2h1.3c0.1,0,0.1,0,0.1,0.1l0,0v2.9h1
		c0-0.1,0-0.2,0-0.3v-2.6c0-0.2,0-0.2,0.2-0.2h1.2c0.2,0,0.2,0,0.2-0.2s0-0.3,0-0.5S62.5,72.4,62.2,72.4z"/>
	<path class="st1" d="M42,72.4h-3.8c-0.1,0-0.2,0.1-0.2,0.2v0.5c0,0.3,0,0.3,0.3,0.3h1.1c0.2,0,0.2,0,0.2,0.2c0,0.1,0,0.1,0,0.1v2.5
		c0,0.1,0,0.2,0,0.2h1v-2.8c0-0.2,0-0.2,0.2-0.2h1.1c0.2,0,0.2,0,0.2-0.2s0-0.3,0-0.5S42.2,72.4,42,72.4z"/>
</g>
<g>
	<g>
		<path class="st2" d="M41.9,28.1c-0.3-0.1-0.7-0.2-1.1-0.3c-0.1,0-0.2,0-0.2,0.1c-0.1,0.1-0.1,0.1-0.1,0.2
			c-0.1,0.3-0.3,0.7-0.4,1.1c-0.5,1.2-1.1,2.5-1.7,3.6c-0.3,0.5-0.6,1-0.9,1.4c-0.1,0.1-0.1,0.2-0.2,0.3s-0.1,0.1-0.1,0.1
			c-0.1,0.2-0.3,0.3-0.4,0.5c-0.2,0.2-0.4,0.4-0.7,0.6c-0.3,0.2-0.8,0.3-1.2,0.3c-0.2,0-0.3-0.1-0.4-0.3c-0.1-0.3-0.2-0.6-0.4-0.8
			c-0.3-0.4-0.7-0.8-1.2-0.9c-0.3-0.1-0.6-0.1-0.8-0.2c-0.1,0-0.1,0-0.2-0.1c-0.1-0.1,0.1-0.1,0.1-0.1s0-0.1,0.1-0.1
			c0.2-0.4,0.2-0.8,0.2-1.2c-0.2-0.9-0.8-1.6-1.7-1.7c-1.2-0.2-2.2,0.6-2.5,1.7C28,32.4,28,32.5,28,32.7h-0.1l-0.2-0.1
			c-0.5-0.4-1.2-0.6-1.8-0.5c-0.7,0.1-1.3,0.3-1.7,0.8c-0.1,0.1-0.1,0.2-0.2,0.2S23.8,33,23.7,33c-0.4-0.2-0.8-0.3-1.2-0.4
			c-0.6-0.1-1.2,0-1.6,0.4c-0.2,0.1-0.3,0.2-0.4,0.4c-0.6,0.8-1.2,1.8-1.7,2.9s-1,2.3-1.3,3.4c-0.2,0.6-0.4,1.2-0.6,1.8
			c-0.2,0.4-0.3,1-0.4,1.4c-0.2,0.6-0.3,1.2-0.4,1.8c-0.1,0.3-0.1,0.7-0.2,1.1c-0.1,0.6,0,1.2,0.1,1.7c0.1,0.9,0.4,1.7,1.1,2.4
			c0.3,0.3,0.5,0.5,0.8,0.7c0.2,0.2,0.4,0.3,0.7,0.4c0.8,0.4,1.8,0.4,2.7,0.2c0.6-0.1,1.2-0.3,1.7-0.6c0.3-0.2,0.6-0.3,1-0.5
			c0.3-0.2,0.7-0.3,1-0.6s0.7-0.4,1.1-0.6c0.6-0.3,1.1-0.7,1.7-1c0.6-0.3,1.1-0.4,1.7-0.6c1.1-0.3,2.2-0.4,3.4-0.4
			c1.1-0.1,2.2,0,3.2,0.2c0.5,0.1,1.1,0.1,1.6,0.2c0.4,0.1,0.8,0.2,1.2,0.3c0.6,0.2,1.1,0.4,1.6,0.7c0.6,0.3,1.1,0.7,1.6,1.2
			c0.6,0.6,1.1,1.1,1.5,1.8c0.7,1,1.3,2,2,3c0.4,0.6,0.9,1.2,1.4,1.8c0.5,0.6,1.1,1,1.8,1.3c1,0.3,2,0.4,3,0.2s2-0.6,2.8-1.3
			c0.6-0.4,1.1-1.1,1.3-1.8c0.1-0.3,0.2-0.6,0.2-0.9s0.1-0.7,0.2-1s0.1-0.7,0.2-1c0.1-0.6,0.1-1.2,0.1-1.8c0.1-0.9,0.1-1.8,0.1-2.7
			c0-1.1-0.1-2.2-0.2-3.2s-0.1-2.2-0.2-3.2c-0.1-0.8-0.3-1.5-0.7-2.1c-0.2-0.4-0.6-0.7-1.1-1c-0.2-0.1-0.4-0.2-0.6-0.3
			s-0.3-0.2-0.6-0.3c-0.6-0.2-1.2-0.3-1.8-0.2c-0.2,0.1-0.3-0.1-0.4-0.2l-0.2-0.1l-0.1-0.1c-0.9-1.1-2.5-1.3-3.6-0.4
			c-0.3,0.3-0.6,0.7-0.8,1.1c-0.1,0.2-0.1,0.2-0.3,0.2c-0.4,0-1,0.1-1.3,0.3c-0.1,0.1-0.2,0.1-0.2,0.1c-0.1-0.3-0.1-0.5-0.2-0.8
			c-0.2-0.6-0.7-1-1.3-1.2c-0.1,0-0.2-0.1-0.3-0.1s-0.1,0-0.1-0.1s-0.1-0.3-0.1-0.5c-0.1-0.3-0.1-0.7-0.1-1.1c0-0.7,0.1-1.5,0.1-2.1
			c0.1-1,0.1-2,0.2-3c0-0.2,0.1-0.4,0.1-0.7C42.1,28.2,42.1,28.1,41.9,28.1L41.9,28.1z"/>
		<path class="st2" d="M33.3,22.2c0.1,1.2,0.3,2.4,0.4,3.6c0.2,1.1,0.3,2.2,0.4,3.3c0,0.2,0.1,0.4,0.2,0.6c0.1,0.1,0.2,0.2,0.3,0.3
			c0.1,0.1,0.1,0.1,0.2,0c0.2-0.1,0.3-0.2,0.4-0.3l0.7-0.6c0.3-0.3,0.7-0.5,1-0.7c0.2-0.2,0.5-0.4,0.7-0.6c0.4-0.3,0.8-0.6,1.2-0.9
			c0.1-0.1,0.2-0.1,0.4-0.1c0.4,0.1,1,0.2,1.4,0.3c0.8,0.2,1.6,0.4,2.4,0.6c0.2,0.1,0.4,0.2,0.4,0.3s0.1,0.1,0.1,0.2l2,4.1
			c0.2,0.4,0.2,0.4,0.6,0.3c0.2-0.1,0.4-0.2,0.5-0.4l2.8-4.1c0.6-0.9,1.2-1.8,1.8-2.6c0.3-0.4,0.4-1,0.2-1.5
			c-0.1-0.2-0.2-0.4-0.3-0.7c-0.2-0.2-0.4-0.4-0.6-0.7c-0.1-0.1-0.3-0.2-0.4-0.1l-0.4,0.3l-1.8,1.1c-0.1,0.1-0.2,0.1-0.2,0.1
			c-0.1,0-0.1,0-0.1-0.1s0.1-0.2,0.1-0.2c0.2-0.2,0.3-0.3,0.4-0.4c1.8-1.5,3.2-3.4,4-5.5c0.2-0.4,0.3-0.8,0.4-1.2
			c0.1-0.1,0.1-0.1,0-0.1s-0.1,0.1-0.2,0.1c-0.4,0.2-0.8,0.3-1.2,0.4c-1,0.2-1.9,0.3-2.9,0.3c-0.7,0-1.3,0-2,0
			c-0.5-0.1-1-0.1-1.5-0.2c-1.1-0.2-2.1-0.4-3.1-0.8c-2-0.7-3.8-1.8-5.3-3.2c-0.1-0.1-0.1-0.1-0.1-0.1c0,0.1-0.1,0.7-0.1,0.7
			c-0.1,1-0.1,2,0,3c0.1,1.1,0.4,2.2,0.8,3.3c0.2,0.4,0.3,0.8,0.5,1.3c0,0.1,0.1,0.1,0.1,0.2c0,0.1-0.1,0.2-0.2,0.1
			c-0.1-0.1-0.1-0.1-0.2-0.2c-0.2-0.4-0.4-0.7-0.7-1.1c-0.2-0.4-0.5-0.8-0.7-1.2c-0.1-0.2-0.2-0.2-0.4-0.1l-0.6,0.3
			c-0.2,0.1-0.4,0.2-0.7,0.3c-0.6,0.3-0.9,1-0.8,1.6C33.3,21.5,33.3,21.9,33.3,22.2z M51.1,17.3c-0.2,0.1-0.3,0.1-0.5,0.2l0,0
			C50.7,17.4,50.9,17.3,51.1,17.3z"/>
		<path class="st2" d="M36.9,13.6c0.6,0.5,1.2,0.9,2,1.3c0.8,0.5,1.7,1,2.6,1.3c1.7,0.6,3.4,1,5.2,1c1.2,0.1,2.3,0,3.5-0.2
			c0.7-0.1,1.3-0.2,2-0.4c0.3-0.1,0.4-0.3,0.5-0.6c0.1-0.3,0.2-0.7,0.2-1.1c0.1-0.8,0.2-1.6,0.2-2.4c0-1.3-0.1-2.5-0.4-3.8
			c-0.4-1.8-1.1-3.5-2-5.2c-0.7-1.1-1.4-2.1-2.2-3c-0.1-0.1-0.2-0.2-0.4-0.3c-0.3-0.2-0.7-0.2-1.1,0c-1.1,0.4-2.2,1-3.2,1.7
			c-2,1.3-3.6,3-5,4.9c-1.2,1.7-2.1,3.7-2.5,5.8c-0.1,0.2,0,0.4,0.2,0.6C36.6,13.3,36.7,13.4,36.9,13.6z M43.4,11.3L43.4,11.3
			L43.4,11.3z"/>
		<path class="st2" d="M26.6,31.9c0.8,0,1.5-0.6,1.5-1.5c0-0.8-0.6-1.5-1.4-1.5c-0.1,0-0.1,0-0.1,0c-0.8,0-1.5,0.7-1.5,1.5
			S25.8,31.8,26.6,31.9z"/>
	</g>
	<path class="st0" d="M42.3,10.8c0-0.2,0.1-0.3,0.2-0.5c0.4-0.8,1.1-1.5,2-1.8c0.3-0.2,0.7,0,0.8,0.3c0.2,0.3,0,0.7-0.3,0.8
		c-0.1,0-0.2,0.1-0.2,0.1c-0.3,0.1-0.5,0.2-0.7,0.4s-0.3,0.4-0.4,0.7s-0.4,0.6-0.7,0.5C42.6,11.4,42.3,11.2,42.3,10.8L42.3,10.8z"/>
	<path class="st1" d="M37.3,34.5c0.1-0.2,0.1-0.2,0.2-0.3c0.3-0.4,0.6-0.9,0.9-1.4c0.6-1.2,1.2-2.4,1.7-3.6c0.2-0.3,0.3-0.7,0.4-1.1
		c0-0.1,0.1-0.1,0.1-0.2s0.1-0.1,0.2-0.1c0.4,0.1,0.8,0.2,1.1,0.3c0,0.2-0.1,0.4-0.1,0.6c-0.1,0.3-0.1,0.7-0.2,1s-0.1,0.8-0.2,1.1
		s-0.1,0.8-0.2,1.2c-0.1,0.3-0.1,0.6-0.1,1c0,0.3-0.1,0.7-0.1,1v1.5c0,0.1,0,0.1,0,0.1c0,0.1,0.1,0.1,0.1,0.1l0,0h0.3
		c0.4,0.1,0.8,0.3,1.2,0.5c0.4,0.3,0.7,0.8,0.7,1.3c0,0.2,0,0.3-0.1,0.5c0,0.1,0,0.1,0.1,0.1s0.1,0,0.1-0.1c0.2-0.2,0.3-0.3,0.6-0.4
		c0.3-0.2,0.6-0.3,0.9-0.3c0.2,0,0.4,0.1,0.6,0.2c0.1,0.1,0.2,0.1,0.2-0.1c0.1-0.2,0.2-0.4,0.3-0.6c0.3-0.4,0.8-0.8,1.3-0.9
		c0.1-0.1,0.3-0.1,0.4-0.1l0.4,0.1c0.4,0.1,0.8,0.3,1.2,0.6c0.2,0.2,0.4,0.4,0.5,0.7c0,0.1,0.1,0.1,0.2,0.1l0.1-0.1
		c0.4-0.2,0.8-0.2,1.3-0.2c0.5,0.1,0.9,0.4,1.2,0.8c0.1,0.1,0.1,0.1,0.2,0.2c0.3,0.1,0.5,0.2,0.7,0.4c0.5,0.5,0.8,1.1,0.9,1.8
		c0.1,0.2,0.1,0.4,0.1,0.7c0.1,0.3,0.1,0.7,0.2,1c0.1,0.4,0.1,0.8,0.1,1.2c0,0.3,0,0.5,0.1,0.8C55,44,55,44.2,55,44.5
		c0,0.3,0,0.5-0.1,0.8c0,0.2-0.1,0.4-0.1,0.7c-0.1,0.3-0.1,0.5-0.1,0.8c0,0.2,0,0.3-0.1,0.5c-0.1,0.4-0.1,0.9-0.2,1.3
		s-0.1,0.7-0.3,1.1c-0.2,0.5-0.3,1-0.6,1.4c-0.3,0.6-0.6,1.2-1.1,1.7c-0.6,0.7-1.5,1.2-2.4,1.4c-0.4,0.1-0.8,0.1-1.3,0
		c-0.3-0.1-0.7-0.2-1-0.3c-0.6-0.3-1.1-0.6-1.6-1.1c-0.3-0.3-0.7-0.7-1-1.1s-0.7-0.8-1.1-1.2c-0.2-0.3-0.4-0.5-0.7-0.7
		c-0.6-0.7-1.2-1.3-1.9-1.8c-0.3-0.2-0.6-0.4-0.9-0.7c-0.4-0.3-0.9-0.6-1.4-0.8c-0.4-0.2-0.8-0.4-1.2-0.6c-0.5-0.2-1-0.3-1.5-0.4
		c-0.4-0.1-0.8-0.2-1.2-0.2c-0.4,0-0.8-0.1-1.2-0.1h-0.1c-0.2-0.1-0.4-0.1-0.7,0c-0.4,0.1-0.7,0-1.1,0.1c-0.2,0-0.5,0.1-0.7,0.1
		c-0.3,0.1-0.7,0.1-1.1,0.2c-0.4,0.1-0.9,0.2-1.3,0.3s-1,0.2-1.5,0.4c-0.4,0.1-0.9,0.2-1.3,0.4c-0.6,0.2-1.1,0.5-1.7,0.7
		c-0.6,0.2-1.2,0.4-1.7,0.4C22.5,48,22.2,48,21.9,48c-0.3,0.1-0.7,0.1-1,0.2s-0.7,0-1.1-0.1c-0.7-0.2-1.5-0.6-1.9-1.2
		c-0.2-0.2-0.3-0.4-0.4-0.6c-0.2-0.3-0.3-0.6-0.3-0.8C17.1,45.2,17,45,17,44.7c-0.1-0.3-0.1-0.6-0.1-0.9c0-0.4,0-0.9,0.1-1.3
		c0.1-0.3,0.1-0.6,0.1-0.9c0.1-0.6,0.2-1.1,0.3-1.6c0.1-0.4,0.2-0.9,0.4-1.3c0.2-0.3,0.3-0.7,0.4-1.1c0.2-0.6,0.4-1.2,0.7-1.9
		c0.3-0.7,0.7-1.4,1.3-2c0.2-0.2,0.5-0.4,0.8-0.5c0.2-0.1,0.4-0.1,0.7-0.2c0.2-0.1,0.5-0.1,0.7,0c0.4,0.1,0.9,0.2,1.3,0.5
		c0.1,0.1,0.2,0.1,0.2-0.1c0.2-0.3,0.4-0.6,0.6-0.7c0.4-0.3,0.8-0.4,1.3-0.4c0.4,0,0.8,0.1,1.2,0.2c0.3,0.1,0.6,0.3,0.8,0.6
		c0,0.1,0,0.1,0.1,0.1c0-0.1,0-0.1,0-0.2c-0.1-0.2-0.1-0.3,0-0.5c0.1-0.3,0.1-0.6,0.3-0.8c0.1-0.2,0.2-0.3,0.3-0.4
		c0.1-0.2,0.3-0.3,0.4-0.3c0.3-0.1,0.6-0.2,0.9-0.2s0.6,0.1,0.8,0.2c0.2,0.1,0.3,0.2,0.4,0.4c0.4,0.4,0.6,1.1,0.4,1.7
		c-0.1,0.2-0.2,0.4-0.3,0.6L31,33.8h0.1c0.3-0.1,0.6,0,1,0.1c0.1,0.1,0.2,0.1,0.3,0.1c0.3,0.1,0.7,0.3,0.9,0.6
		c0.3,0.3,0.4,0.8,0.3,1.3c0,0.2-0.1,0.3-0.1,0.6c0.1,0.1,0.2,0.1,0.4,0.1c0.2,0.1,0.4,0.1,0.6,0c0.3-0.1,0.6-0.2,0.9-0.3
		s0.6-0.3,0.8-0.5c0.2-0.2,0.3-0.3,0.5-0.5s0.3-0.3,0.4-0.6C37.3,34.6,37.3,34.5,37.3,34.5z"/>
	<path class="st1" d="M52.4,16.7c-0.3,0.2-0.6,0.3-0.9,0.4c-0.3,0.1-0.6,0.2-1,0.3c-0.1,0-0.2,0.1-0.2,0.2c-0.2,0.6-0.4,1.1-0.8,1.6
		c-0.2,0.3-0.3,0.6-0.4,0.8s-0.3,0.4-0.4,0.6c-0.3,0.3-0.6,0.7-0.9,1.1c-0.3,0.3-0.6,0.7-0.9,1c-0.3,0.2-0.5,0.4-0.8,0.6
		c-0.4,0.3-1,0.6-1.6,0.7C44.2,24,44,24,43.7,24.2c-0.2,0.1-0.4,0.1-0.6,0l-0.8-0.1C42,24,41.7,24,41.4,23.8c-0.5-0.2-1-0.4-1.5-0.8
		c-0.2-0.1-0.4-0.3-0.6-0.4c-0.1-0.1-0.2-0.2-0.3-0.3c-0.2-0.1-0.3-0.3-0.4-0.4c-0.2-0.2-0.3-0.4-0.5-0.7c-0.3-0.4-0.5-0.8-0.7-1.2
		c-0.2-0.5-0.3-1-0.4-1.6c-0.1-0.3-0.1-0.5-0.1-0.8c-0.1-0.8,0-1.7,0-2.5c0-0.3,0-0.6,0.1-0.8c0.1-0.1,0-0.3-0.1-0.3
		c-0.2-0.1-0.3-0.3-0.5-0.4c-0.1-0.1-0.1-0.1-0.2-0.1c0-0.1,0-0.1,0-0.2c0.1,0,0.1,0.1,0.1,0.1c1.5,1.4,3.3,2.5,5.3,3.2
		c1,0.3,2,0.6,3.1,0.8c0.5,0.1,1,0.2,1.5,0.2c0.7,0.1,1.3,0.1,2,0c1,0,2-0.1,2.9-0.3c0.4-0.1,0.8-0.2,1.2-0.4
		C52.4,16.8,52.4,16.8,52.4,16.7C52.5,16.6,52.5,16.6,52.4,16.7z"/>
	<path class="st2" d="M51.1,43.4c0,0.4-0.1,0.8-0.4,1.1c-0.1,0.1-0.2,0.2-0.3,0.3c-0.1,0.1-0.1,0.1-0.1,0.2c0,0.2,0.1,0.5,0.2,0.7
		s0.2,0.4,0.4,0.6c0.2,0.2,0.3,0.6,0.3,0.8c0,0.3-0.1,0.7-0.3,1c-0.3,0.4-0.8,0.7-1.4,0.7c-0.4,0-0.8-0.2-1.1-0.6
		C48.3,48,48.2,48,48.1,48c-0.3-0.1-0.6-0.1-0.8,0c-0.1,0-0.2,0.1-0.2,0.2c-0.2,0.3-0.4,0.5-0.8,0.6c-0.8,0.3-1.7-0.2-2-1
		c0-0.1-0.1-0.1-0.1-0.2C44,47,44.3,46.4,44.8,46c0.1-0.1,0.2-0.2,0.2-0.3c0.1-0.2,0.1-0.3,0.1-0.4c0.1-0.2-0.1-0.4-0.2-0.6
		c-0.3-0.2-0.6-0.6-0.6-0.9c-0.2-0.8,0.3-1.7,1.2-1.8c0.4-0.1,0.8,0,1.2,0.2c0.2,0.1,0.3,0.3,0.4,0.4s0.2,0.2,0.2,0.2
		c0.2,0,0.3,0.1,0.4,0.1c0.2,0,0.4-0.1,0.5-0.3c0.2-0.3,0.5-0.5,0.9-0.6c0.5-0.1,1,0,1.4,0.3c0.2,0.2,0.4,0.4,0.4,0.7
		C51.1,43.1,51.1,43.2,51.1,43.4z M46.4,45.4L46.4,45.4c-0.1,0.3,0.1,0.4,0.2,0.5c0.2,0.1,0.3,0.2,0.4,0.4c0.1,0.1,0.2,0.2,0.4,0.2
		c0.1,0,0.1,0,0.2,0c0.3,0.1,0.6-0.1,0.7-0.3c0.1-0.1,0.2-0.3,0.3-0.3c0.1-0.1,0.2-0.2,0.2-0.3c0-0.1,0-0.2,0.1-0.2
		c0.1-0.2,0-0.4-0.2-0.6c-0.2-0.1-0.3-0.3-0.4-0.4s-0.2-0.2-0.4-0.2c-0.2,0-0.3,0-0.5,0s-0.3,0.1-0.4,0.2s-0.2,0.2-0.3,0.3
		c-0.1,0.1-0.1,0.1-0.1,0.2C46.4,45,46.4,45.2,46.4,45.4z M48.3,47.2c0,0.6,0.5,1.2,1.1,1.2c0.7,0,1.2-0.5,1.2-1.2S50.1,46,49.4,46
		l0,0C48.9,46,48.4,46.5,48.3,47.2L48.3,47.2z M46.9,47.2c0.1-0.7-0.4-1.2-1.1-1.2s-1.2,0.4-1.2,1.1c0,0.1,0,0.1,0,0.2
		c-0.1,0.7,0.4,1.2,1.1,1.2s1.2-0.4,1.2-1.1C46.9,47.3,46.9,47.2,46.9,47.2z M49.5,44.5c0.7,0,1.2-0.5,1.2-1.2s-0.5-1.2-1.2-1.2
		s-1.2,0.5-1.2,1.2l0,0C48.3,44,48.8,44.5,49.5,44.5C49.5,44.6,49.5,44.6,49.5,44.5L49.5,44.5z M46.9,43.4c0-0.6-0.5-1.2-1.1-1.2
		l0,0c-0.7,0-1.2,0.5-1.2,1.2s0.5,1.2,1.2,1.2C46.4,44.6,46.9,44,46.9,43.4L46.9,43.4z"/>
	<path class="st2" d="M25.9,39.9c0.2,0,0.3-0.1,0.4-0.1c0.3-0.1,0.7-0.1,1-0.1c0.5,0.2,1,0.3,1.5,0.4c0.3,0.1,0.4,0.3,0.4,0.6v0.1
		c-0.2,0.6-0.3,1.2-0.6,1.7c-0.1,0.1-0.1,0.2-0.2,0.3c-0.1,0.1-0.3,0.1-0.4,0.1c-0.2-0.1-0.3-0.1-0.5-0.2c-0.3-0.1-0.7-0.2-1-0.3
		c-0.3-0.1-0.5-0.3-0.7-0.5c-0.1-0.1-0.2-0.2-0.3-0.2c-0.1,0.1,0,0.1,0,0.1l0.1,0.1c0.1,0.3,0.2,0.6,0.1,1c-0.2,0.5-0.3,1-0.4,1.5
		c-0.1,0.2-0.2,0.3-0.3,0.3s-0.1,0-0.2,0l-1.3-0.2c-0.2-0.1-0.4-0.1-0.7-0.2c-0.4-0.2-0.4-0.3-0.4-0.7s0.2-0.7,0.3-1
		c0-0.1,0-0.1,0.1-0.2c0.1-0.4,0.3-0.8,0.7-1c0.1-0.1,0.1-0.1,0.2-0.2c-0.2,0-0.4,0.1-0.6,0.1c-0.1,0.1-0.3,0.1-0.4,0.1
		c-0.6-0.2-1.1-0.3-1.6-0.5c-0.3-0.1-0.4-0.3-0.4-0.6c0-0.1,0-0.1,0.1-0.1c0.2-0.6,0.3-1.1,0.5-1.7c0.1-0.2,0.2-0.3,0.4-0.4
		c0.1,0,0.2,0,0.2,0c0.4,0.1,0.8,0.2,1.2,0.3c0.2,0.1,0.4,0.1,0.6,0.3c0.2,0.1,0.3,0.3,0.5,0.5l0.1,0.2c0.1-0.1,0-0.1,0-0.1
		c-0.1-0.2-0.1-0.4-0.2-0.7c-0.1-0.1-0.1-0.2,0-0.3c0.2-0.6,0.3-1.1,0.4-1.7c0.1-0.2,0.3-0.4,0.4-0.4c0.1,0,0.1,0,0.2,0l1,0.3
		c0.3,0.1,0.6,0.2,0.8,0.3c0.1,0,0.2,0.1,0.2,0.1c0.1,0.1,0.2,0.2,0.2,0.3c0,0.2,0,0.3-0.1,0.5C27.1,38,27,38.3,27,38.5
		c-0.1,0.4-0.3,0.9-0.7,1.2C26.2,39.7,26,39.8,25.9,39.9L25.9,39.9L25.9,39.9z M22.9,43.3c-0.1,0.2,0.1,0.4,0.3,0.4
		c0.5,0.2,1,0.3,1.5,0.4c0.2,0.1,0.4,0,0.5-0.2c0-0.1,0-0.1,0-0.1c0.2-0.4,0.3-1,0.4-1.4c0-0.1,0-0.1,0-0.2
		c-0.1-0.4-0.3-0.8-0.6-1.1c-0.2-0.3-0.6-0.3-0.8-0.2c-0.2,0.1-0.4,0.2-0.6,0.3c-0.3,0.2-0.4,0.4-0.5,0.7c-0.1,0.3-0.2,0.6-0.2,1
		C22.8,43.2,22.8,43.2,22.9,43.3z M24.2,38.5c0,0.1,0,0.2,0.1,0.2c0.2,0.3,0.3,0.6,0.4,0.9c0.1,0.2,0.2,0.2,0.4,0.3
		c0.1,0,0.1,0,0.1,0c0.3-0.1,0.7-0.3,1-0.5s0.4-0.5,0.5-0.8s0.2-0.6,0.2-0.9c0.1-0.2,0-0.4-0.2-0.5c-0.1,0-0.1,0-0.1-0.1
		c-0.4-0.2-1-0.3-1.4-0.4c-0.2-0.1-0.4,0-0.6,0.2c0,0.1,0,0.1,0,0.1c-0.1,0.4-0.2,0.9-0.4,1.3C24.2,38.5,24.2,38.5,24.2,38.5z
		 M21.1,40.3c0,0.2,0.1,0.4,0.3,0.4l1.5,0.4c0.1,0,0.2,0,0.2,0c0.3-0.2,0.7-0.3,1.1-0.6c0.1-0.1,0.2-0.2,0.2-0.3
		c0-0.1,0-0.2-0.1-0.3c-0.1-0.3-0.3-0.6-0.5-0.8c-0.2-0.3-0.5-0.4-0.8-0.5c-0.2-0.1-0.4-0.1-0.6-0.2c-0.1,0-0.2-0.1-0.3-0.1
		c-0.2-0.1-0.4,0.1-0.4,0.2s-0.1,0.1-0.1,0.2c-0.2,0.4-0.3,0.9-0.4,1.3C21.1,40.2,21.1,40.3,21.1,40.3z M27.7,42.6
		c0.1,0,0.2-0.1,0.3-0.2s0.1-0.1,0.1-0.2c0.2-0.4,0.3-1,0.4-1.4c0.1-0.2-0.1-0.4-0.2-0.6c0,0,0,0-0.1,0c-0.4-0.2-1-0.3-1.4-0.4
		c-0.1-0.1-0.2-0.1-0.3,0c-0.3,0.2-0.7,0.3-1,0.5c-0.2,0.1-0.3,0.4-0.2,0.7l0,0c0.1,0.3,0.3,0.6,0.4,0.8c0.2,0.3,0.4,0.4,0.8,0.5
		c0.3,0.1,0.6,0.2,0.8,0.2C27.5,42.5,27.6,42.6,27.7,42.6L27.7,42.6z"/>
	<path class="st1" d="M50.8,24.7c-0.1,0-0.3-0.1-0.3-0.2c-0.1-0.3-0.3-0.5-0.4-0.7s-0.1-0.4,0.1-0.5s0.3-0.1,0.4,0s0.2,0.2,0.2,0.2
		c0.2,0.2,0.3,0.4,0.4,0.7C51.1,24.4,51,24.7,50.8,24.7L50.8,24.7z"/>
	<path class="st1" d="M47.3,16.9c-0.2,0-0.4,0-0.6,0c-0.3-0.1-0.6,0-1-0.1c-0.2,0-0.3-0.1-0.4-0.1c-0.8-0.1-1.7-0.2-2.5-0.5
		c-0.7-0.2-1.3-0.4-2-0.7s-1.4-0.6-2.1-1.1c-0.5-0.3-1-0.6-1.5-0.9l-0.1-0.1c-0.3-0.2-0.3-0.2-0.2-0.5c0.1-0.6,0.2-1.1,0.3-1.7
		c0.2-0.5,0.3-1.1,0.6-1.6c0.2-0.5,0.4-1,0.7-1.5c0.3-0.6,0.8-1.2,1.2-1.7c0.2-0.3,0.4-0.5,0.6-0.7c0.4-0.6,1-1.1,1.5-1.6
		c0.2-0.3,0.5-0.5,0.7-0.8c0.3-0.3,0.7-0.7,1.1-1s0.7-0.5,1-0.7c0.1-0.1,0.3-0.2,0.4-0.3c0.4-0.2,0.7-0.5,1.1-0.6
		c0.3-0.1,0.5-0.2,0.8-0.3c0.4-0.1,0.9,0,1.3,0.3c0.3,0.2,0.4,0.3,0.6,0.4c0.2,0.3,0.5,0.6,0.7,0.8c0.1,0.2,0.3,0.4,0.4,0.6
		C50,2.6,50,2.7,50,2.7c0.1,0.2,0.3,0.4,0.4,0.6c0.2,0.2,0.4,0.5,0.5,0.8c0.2,0.4,0.4,0.8,0.6,1.3c0.1,0.1,0.1,0.2,0.1,0.3
		c0.1,0.2,0.1,0.4,0.2,0.6c0.1,0.1,0.1,0.3,0.1,0.4c0,0.2,0.1,0.3,0.1,0.5c0.1,0.3,0.2,0.6,0.2,0.8c0.1,0.3,0.1,0.7,0.1,1.1
		c0.1,0.4,0.1,0.8,0,1.3c0,0.3-0.1,0.6-0.1,1c-0.1,0.4-0.1,0.7-0.2,1.1c-0.1,0.3-0.1,0.7-0.2,1.1c-0.2,0.7-0.4,1.5-0.7,2.2
		C51,15.8,51,15.9,51,15.9c-0.1,0.1-0.2,0.2-0.3,0.2c-0.3,0.1-0.6,0.1-1,0.1c-0.3,0.1-0.7,0.1-1,0.1h-0.1
		C48.2,16.9,47.7,17,47.3,16.9z"/>
	<path class="st1" d="M26.6,29c0.5,0,1,0.2,1.1,0.7c0.1,0.2,0.1,0.4,0.1,0.7c-0.1,0.7-0.7,1.2-1.4,1.1c-0.6-0.1-1-0.5-1.1-1
		c-0.1-0.6,0.3-1.1,0.8-1.3C26.3,29,26.4,29,26.6,29z"/>
	<path class="st1" d="M46.4,45.4c0-0.2,0-0.4,0.1-0.6c0-0.1,0.1-0.2,0.1-0.2c0.1-0.1,0.2-0.2,0.3-0.3s0.3-0.2,0.4-0.2
		c0.2,0,0.3,0,0.5,0s0.3,0.1,0.4,0.2s0.3,0.3,0.4,0.4c0.2,0.2,0.2,0.4,0.2,0.6c0,0.1,0,0.2-0.1,0.2c0,0.2-0.1,0.3-0.2,0.3
		c-0.1,0.1-0.3,0.2-0.3,0.3c-0.2,0.2-0.4,0.3-0.7,0.3c-0.1,0-0.1,0-0.2,0c-0.2,0-0.3-0.1-0.4-0.2c-0.1-0.2-0.2-0.3-0.4-0.4
		C46.3,45.7,46.3,45.6,46.4,45.4L46.4,45.4L46.4,45.4L46.4,45.4z"/>
	<path class="st3" d="M48.4,47.2c0-0.6,0.5-1.2,1.2-1.2l0,0c0.7,0,1.2,0.6,1.2,1.2l0,0c0,0.7-0.6,1.2-1.2,1.2l0,0
		C48.9,48.3,48.4,47.8,48.4,47.2z"/>
	<path class="st3" d="M46.9,47.2c0,0.7-0.6,1.2-1.2,1.2c-0.7,0-1.2-0.6-1.2-1.2c0-0.7,0.6-1.2,1.2-1.2l0,0
		C46.4,46,46.9,46.5,46.9,47.2L46.9,47.2z"/>
	<path class="st3" d="M49.5,44.6c-0.7,0.1-1.2-0.4-1.2-1.1c-0.1-0.7,0.4-1.2,1.1-1.2c0.1,0,0.1,0,0.2,0c0.7,0.1,1.1,0.6,1.1,1.3
		C50.6,44.1,50.1,44.5,49.5,44.6z"/>
	<path class="st3" d="M46.9,43.4c0,0.6-0.5,1.2-1.2,1.2l0,0c-0.7,0-1.2-0.5-1.2-1.2s0.5-1.2,1.2-1.2S46.9,42.7,46.9,43.4L46.9,43.4z
		"/>
	<path class="st3" d="M22.9,43.3c0-0.1,0-0.2,0.1-0.2c0.1-0.3,0.2-0.6,0.2-1c0.1-0.3,0.2-0.6,0.5-0.7c0.2-0.1,0.3-0.3,0.6-0.3
		c0.3-0.2,0.7-0.1,0.8,0.2c0.3,0.3,0.4,0.7,0.6,1.1c0,0.1,0,0.1,0,0.2c-0.1,0.5-0.3,1-0.4,1.4c-0.1,0.2-0.2,0.3-0.4,0.3
		c-0.1,0-0.1,0-0.1,0c-0.5-0.1-1-0.3-1.5-0.4C23,43.7,22.8,43.5,22.9,43.3C22.9,43.4,22.9,43.4,22.9,43.3z"/>
	<path class="st3" d="M24.2,38.5c0-0.1,0-0.1,0-0.2c0.1-0.4,0.2-0.9,0.4-1.3c0.1-0.2,0.3-0.4,0.5-0.3c0.1,0,0.1,0,0.1,0
		c0.4,0.2,1,0.3,1.4,0.4c0.2,0.1,0.4,0.2,0.3,0.4c0,0.1,0,0.1-0.1,0.1c-0.1,0.3-0.2,0.6-0.2,0.9c-0.1,0.3-0.2,0.6-0.5,0.8
		s-0.6,0.4-1,0.5c-0.1,0-0.1,0-0.1,0c-0.2-0.1-0.3-0.2-0.4-0.3C24.4,39.1,24.3,38.9,24.2,38.5C24.2,38.7,24.2,38.7,24.2,38.5z"/>
	<path class="st3" d="M21.1,40.3c0-0.1,0-0.1,0-0.2c0.2-0.4,0.3-0.9,0.4-1.3c0-0.1,0.1-0.1,0.1-0.2c0.1-0.2,0.3-0.3,0.4-0.2
		c0.1,0,0.2,0.1,0.3,0.1c0.2,0.1,0.4,0.1,0.6,0.2c0.3,0.1,0.6,0.2,0.8,0.5c0.2,0.2,0.4,0.5,0.5,0.8c0.1,0.1,0.1,0.2,0.1,0.3
		c0,0.1-0.1,0.2-0.2,0.3c-0.3,0.2-0.7,0.4-1.1,0.6c-0.1,0-0.2,0-0.2,0l-1.5-0.4C21.2,40.7,21.1,40.5,21.1,40.3z"/>
	<path class="st3" d="M27.7,42.6c-0.1,0-0.2,0-0.3-0.1c-0.3-0.1-0.6-0.2-0.8-0.2c-0.3-0.1-0.6-0.2-0.8-0.5c-0.2-0.2-0.3-0.5-0.4-0.8
		c-0.1-0.2,0-0.6,0.2-0.7l0,0c0.3-0.2,0.7-0.3,1-0.5c0.1-0.1,0.2-0.1,0.3,0c0.4,0.1,1,0.3,1.4,0.4c0.2,0.1,0.3,0.3,0.3,0.5
		c0,0,0,0,0,0.1c-0.2,0.4-0.3,1-0.4,1.4c0,0.1-0.1,0.2-0.1,0.2C28,42.5,27.8,42.6,27.7,42.6z"/>
	<path class="st1" d="M25.9,39.9L25.9,39.9L25.9,39.9z"/>
	<path class="st3" d="M41.6,10.3c0.1-0.2,0.1-0.3,0.2-0.4c0.5-1.1,1.5-1.9,2.7-2.1c0.6-0.1,1.1-0.1,1.7,0.1h0.1
		c0,0.1,0.1,0.1,0.1,0.1l0,0C46.4,8,46.5,8,46.5,8l0,0c0.1,0.1,0.1,0.1,0.1,0.1l0,0c0,0.1,0.1,0.1,0.1,0.1l0,0
		c0,0.1,0.1,0.1,0.1,0.1l0,0c0.1,0.1,0.1,0.1,0.2,0.1c0.2,0.1,0.4,0.2,0.6,0.4c1.1,0.9,1.6,2.3,1.2,3.6c-0.4,2-2.3,3.3-4.3,2.9
		c-1.7-0.3-3-1.9-3-3.6c0-0.3,0.1-0.7,0.1-1.1L41.6,10.3L41.6,10.3z"/>
	<path class="st0" d="M42.3,10.8c0,0.3,0.3,0.7,0.6,0.7s0.6-0.2,0.6-0.5c0.1-0.3,0.2-0.5,0.4-0.7c0.2-0.2,0.4-0.4,0.7-0.4
		c0.1,0,0.2-0.1,0.2-0.1c0.3-0.2,0.4-0.6,0.3-0.8c-0.2-0.3-0.6-0.4-0.8-0.3c-0.9,0.3-1.6,1-2,1.8C42.4,10.5,42.3,10.7,42.3,10.8z"/>
</g>
</svg>
